<?xml version="1.0" standalone="no"?>
<!DOCTYPE svg PUBLIC "-//W3C//DTD SVG 20010904//EN"
 "http://www.w3.org/TR/2001/REC-SVG-20010904/DTD/svg10.dtd">
<svg version="1.0" xmlns="http://www.w3.org/2000/svg"
 width="245.000000pt" height="235.000000pt" viewBox="0 0 245.000000 235.000000"
 preserveAspectRatio="xMidYMid meet">
<metadata>
Created by potrace 1.16, written by Peter Selinger 2001-2019
</metadata>
<g transform="translate(0.000000,235.000000) scale(0.100000,-0.100000)"
fill="#000000" stroke="none">
<path d="M1027 1978 c-7 -18 -53 -147 -102 -285 l-89 -253 -38 0 c-21 0 -41
-1 -44 -2 -4 -2 -71 103 -149 232 -79 129 -150 236 -159 238 -42 9 -22 -37
108 -251 75 -123 136 -229 136 -234 0 -6 -13 -16 -30 -23 -69 -28 -130 -126
-130 -205 1 -118 151 -232 294 -223 l54 3 -42 -50 c-116 -138 -128 -155 -123
-170 12 -30 36 -13 118 87 l84 101 5 -129 c5 -121 6 -129 25 -129 19 0 20 7
20 160 l0 160 32 28 33 29 64 -26 c35 -14 73 -26 83 -26 48 -1 48 -9 3 -190
-30 -121 -40 -174 -32 -182 27 -27 41 4 83 181 24 100 48 181 54 181 12 0 125
-323 125 -358 0 -29 27 -40 47 -19 15 14 11 32 -46 194 -33 98 -61 181 -61
185 0 3 15 10 32 14 18 3 47 13 63 21 29 14 32 13 67 -20 21 -19 51 -41 68
-48 16 -8 30 -16 30 -19 0 -3 -16 -79 -35 -170 -20 -90 -33 -170 -31 -177 7
-18 35 -16 43 3 3 9 20 85 38 168 29 139 33 151 53 150 12 0 44 -1 71 -2 l49
-2 8 -132 c8 -123 10 -133 29 -133 19 0 20 6 17 136 l-3 135 53 17 c122 40
206 144 196 246 -16 162 -221 275 -418 230 -24 -5 -65 -21 -91 -34 l-47 -23
-33 24 c-64 47 -136 68 -239 68 -103 1 -171 -16 -233 -58 -30 -21 -36 -22 -53
-9 -10 8 -36 21 -56 30 -21 8 -38 18 -38 21 0 3 43 127 96 275 52 148 93 276
90 283 -10 25 -35 15 -49 -18z m338 -582 c56 -14 91 -31 117 -54 16 -14 16
-17 -10 -61 -23 -39 -27 -57 -26 -118 l1 -72 -39 -16 c-52 -20 -73 -19 -89 6
-11 16 -20 19 -43 13 -16 -4 -31 -15 -34 -26 -4 -17 -10 -18 -46 -13 -22 4
-62 16 -88 27 l-46 20 14 34 c21 49 17 104 -10 157 -26 53 -24 56 40 83 84 36
174 43 259 20z m-435 -36 l39 -20 -17 -32 c-26 -51 -22 -129 11 -174 31 -44
26 -53 -37 -87 -58 -30 -174 -30 -232 0 -114 61 -146 174 -72 259 29 33 76 64
97 64 5 0 33 -38 61 -85 28 -47 58 -85 66 -85 25 0 27 28 5 63 l-20 33 20 42
c12 23 25 42 30 42 6 0 27 -9 49 -20z m941 4 c103 -31 179 -111 179 -189 0
-47 -38 -113 -83 -143 -69 -46 -106 -57 -197 -57 -71 0 -94 4 -142 27 -32 15
-69 38 -83 52 l-25 25 30 33 c49 53 60 111 35 194 -6 18 1 24 42 41 26 12 57
23 68 26 43 10 124 6 176 -9z"/>
</g>
</svg>
